<svg id="visual" viewBox="0 0 900 600" width="900" height="600" xmlns="http://www.w3.org/2000/svg" xmlns:xlink="http://www.w3.org/1999/xlink" version="1.1"><g transform="translate(441.2415276168306 341.96268545272295)"><path d="M135.7 -187.6C182.5 -152.8 231.5 -122 240.3 -81.3C249.2 -40.6 217.8 10 190.8 52.4C163.8 94.9 141.3 129.1 110.2 151.5C79.2 173.9 39.6 184.5 -0.3 184.9C-40.2 185.3 -80.3 175.6 -123.4 157.1C-166.6 138.6 -212.6 111.3 -222.3 74C-231.9 36.7 -205.1 -10.6 -189 -61.8C-173 -113.1 -167.6 -168.2 -137.9 -208.5C-108.2 -248.9 -54.1 -274.4 -4.8 -267.8C44.5 -261.2 89 -222.4 135.7 -187.6" fill="#b38aff"></path></g></svg>