<svg id="visual" viewBox="0 0 900 600" width="900" height="600" xmlns="http://www.w3.org/2000/svg" xmlns:xlink="http://www.w3.org/1999/xlink" version="1.1"><g transform="translate(470.1230543732939 307.62753899803926)"><path d="M149 -199.1C186.7 -177.7 206.5 -125.6 208.4 -77.7C210.3 -29.7 194.3 14.1 179.7 58.2C165.1 102.3 151.9 146.6 122.2 169.9C92.5 193.3 46.2 195.6 -0.8 196.7C-47.8 197.8 -95.6 197.6 -143.2 180.1C-190.7 162.5 -238 127.6 -247.1 84C-256.2 40.4 -227 -11.9 -201.7 -58C-176.4 -104.1 -154.9 -143.9 -121.9 -166.8C-89 -189.8 -44.5 -195.9 5.6 -203.6C55.6 -211.3 111.3 -220.5 149 -199.1" fill="#b38aff"></path></g></svg>