<svg version="1.1" id="Layer_1" xmlns="http://www.w3.org/2000/svg" xmlns:xlink="http://www.w3.org/1999/xlink" x="0px" y="0px"
	 width="100%" viewBox="0 0 512 512" enable-background="new 0 0 512 512" xml:space="preserve">
<path fill="#000000" opacity="1.000000" stroke="none" 
	d="
M1.000000,402.000000 
	C1.000000,268.383820 1.000000,134.767639 1.000000,1.075732 
	C171.551682,1.075732 342.103424,1.075732 513.000000,1.075732 
	C513.000000,77.355629 513.000000,153.711777 512.718750,230.872711 
	C511.778534,230.425186 510.929260,229.236099 510.489044,227.911102 
	C503.048859,205.517242 480.770294,189.394669 457.192047,189.930145 
	C441.081818,190.296021 424.945953,189.635483 408.841125,190.105362 
	C393.395508,190.556015 386.677399,184.278259 381.981659,170.664703 
	C392.233917,160.866104 400.122131,149.905624 405.081238,136.839691 
	C411.159607,120.824844 413.059998,104.497963 411.231476,87.400597 
	C410.384918,79.484909 406.768616,74.188881 400.306458,71.341568 
	C392.956024,68.102905 385.544739,69.381157 379.827911,75.720192 
	C376.221558,79.719017 373.045898,84.110535 369.386444,88.056358 
	C359.736328,98.461594 347.688721,105.336884 334.524811,110.833282 
	C332.848358,109.829521 331.593536,108.674019 330.114563,108.143753 
	C323.125824,105.638039 316.075775,103.303352 308.887329,100.557930 
	C303.808655,84.872398 299.343018,69.371124 293.818451,54.256905 
	C289.892242,43.515430 284.228760,33.475883 275.287720,25.833786 
	C270.432983,21.684362 264.866028,18.776606 258.323059,20.373615 
	C250.900833,22.185230 244.884750,26.701811 241.088577,33.218487 
	C235.904877,42.117050 230.575775,51.126087 226.998825,60.717918 
	C222.107117,73.835381 218.803864,87.545204 214.577423,101.078972 
	C213.919907,101.410507 213.504730,101.664177 213.043259,101.566055 
	C209.315704,96.055756 205.804810,90.764893 201.919998,85.764526 
	C191.840591,72.790703 181.712021,59.824421 167.456787,50.980965 
	C161.568405,47.328022 155.293503,44.397640 148.207718,45.454792 
	C138.912689,46.841545 134.017990,53.436325 131.009644,61.679123 
	C127.206291,72.100182 125.825386,82.934868 125.563057,93.879517 
	C120.279442,88.120483 115.323700,82.452515 110.335594,76.813148 
	C105.386864,71.218300 98.964073,68.759521 91.838951,70.243370 
	C84.890053,71.690514 79.413895,75.914742 78.077553,83.433212 
	C75.695801,96.833374 76.360352,110.352234 79.317688,123.488670 
	C84.669739,147.262344 98.683609,165.474518 117.566101,179.944977 
	C100.852493,185.003082 84.264679,189.284729 68.311295,195.260178 
	C56.260368,199.773956 44.332779,205.453339 36.199482,216.335983 
	C31.915386,222.068253 29.637728,230.141968 35.368805,238.940445 
	C40.952316,247.512375 49.258785,252.855927 58.139111,256.848877 
	C69.442482,261.931305 81.317383,265.742615 92.966461,270.417175 
	C92.942268,271.149841 92.897499,271.567230 92.451012,271.992401 
	C78.872871,275.999390 65.521126,279.507721 52.568935,284.134613 
	C39.389210,288.842773 26.734386,294.771301 17.403490,305.996490 
	C11.759173,312.786682 11.485012,324.318115 17.328154,330.837280 
	C22.974503,337.136902 29.542513,342.171936 37.106503,346.076660 
	C51.036568,353.267670 65.782570,358.098389 80.925461,362.360779 
	C80.930031,363.123718 80.885284,363.559998 80.441086,363.998718 
	C65.306862,368.659149 50.338398,372.699432 35.906509,378.158234 
	C22.863123,383.091919 9.892032,388.856354 2.393847,401.956085 
	C2.272887,402.167450 1.479562,401.993927 1.000000,402.000000 
z"/>
<path fill="#89D47F" opacity="1.000000" stroke="none" 
	d="
M309.047577,100.907700 
	C316.075775,103.303352 323.125824,105.638039 330.114563,108.143753 
	C331.593536,108.674019 332.848358,109.829521 334.742218,111.099754 
	C354.502960,123.016357 367.404236,139.771057 375.952057,160.231400 
	C377.517487,163.978363 379.856567,167.402084 381.838531,170.975006 
	C386.677399,184.278259 393.395508,190.556015 408.841125,190.105362 
	C424.945953,189.635483 441.081818,190.296021 457.192047,189.930145 
	C480.770294,189.394669 503.048859,205.517242 510.489044,227.911102 
	C510.929260,229.236099 511.778534,230.425186 512.718750,231.338745 
	C513.000000,248.687561 513.000000,266.375122 512.690796,284.198242 
	C511.052399,288.615265 509.787659,292.918091 508.381866,297.174316 
	C503.999146,310.443298 497.439575,322.427460 488.450439,333.250397 
	C477.119324,346.893127 463.462646,357.054749 447.221497,364.086243 
	C430.442230,371.350769 412.789459,372.862762 394.858673,372.990936 
	C379.207611,373.102814 363.556091,373.145172 347.547028,373.000763 
	C340.781982,372.497009 334.374664,372.210754 327.648010,371.720520 
	C293.501099,365.078125 264.277008,349.862122 240.533844,324.872864 
	C221.329758,304.660919 208.127655,280.794159 200.447372,254.101990 
	C204.237595,254.044342 207.585037,254.258469 210.884277,253.952652 
	C224.465256,252.693787 235.522247,243.372375 237.264084,231.951248 
	C238.584442,223.293793 234.373703,216.931290 228.935364,210.823013 
	C234.016068,204.889389 231.585327,198.159744 231.742142,191.917969 
	C231.855591,187.402298 228.131104,184.282791 224.133499,184.407547 
	C220.017807,184.535980 217.134537,187.611404 216.947845,192.320221 
	C216.777802,196.608856 216.802811,200.905212 216.333450,205.148102 
	C207.554260,203.018234 199.332581,203.651108 191.178009,205.960526 
	C191.738174,191.364059 191.476959,177.156998 193.162872,163.184875 
	C195.850891,140.907806 203.395004,120.185303 217.312027,101.761086 
	C225.048126,100.792404 232.464615,99.371582 239.868912,99.432594 
	C262.930969,99.622681 285.988373,100.374023 309.047577,100.907700 
M327.941620,211.743942 
	C314.826660,225.082672 317.230103,241.675385 333.943604,250.173920 
	C346.204620,256.408447 358.799805,256.025543 370.643433,248.926117 
	C387.034424,239.100952 386.887512,219.162750 370.576874,209.147537 
	C361.081085,203.316864 350.838501,202.836105 340.153992,204.239700 
	C340.109833,199.922455 340.231628,195.595169 339.971619,191.290970 
	C339.743439,187.514023 337.380585,184.572891 333.757233,184.777863 
	C331.106567,184.927795 326.759583,186.920990 326.325745,188.815491 
	C324.618103,196.272781 322.866150,204.146484 327.941620,211.743942 
M366.123901,289.763428 
	C366.067871,297.365723 369.039856,303.659637 374.429596,308.890869 
	C386.791840,320.889587 409.095581,323.631836 424.576202,314.080109 
	C429.851318,310.825287 434.900757,305.830627 437.829437,300.425934 
	C444.426849,288.250824 439.098572,277.642029 425.555328,274.956146 
	C410.401306,271.950745 395.075012,272.072479 379.903625,275.105133 
	C372.470459,276.590973 367.167175,280.765869 366.123901,289.763428 
M231.315643,167.135269 
	C226.067825,166.238831 220.838120,165.210083 215.566467,164.487564 
	C211.311020,163.904312 207.716125,166.508606 207.108475,170.451187 
	C206.459396,174.662323 208.170410,177.974670 212.320953,178.866455 
	C220.278061,180.576157 228.324692,181.962036 236.395294,183.012711 
	C240.580856,183.557602 243.437790,181.165390 244.029221,176.843933 
	C244.612350,172.583115 242.552368,169.772202 238.505356,168.560486 
	C236.445572,167.943741 234.272797,167.704422 231.315643,167.135269 
M348.297363,176.688034 
	C348.491608,173.735672 349.675018,170.314087 348.567444,167.979263 
	C347.679993,166.108505 343.895599,164.402481 341.597412,164.631973 
	C333.998138,165.390808 326.455505,166.893967 318.959656,168.442932 
	C314.647614,169.333984 312.436371,172.301575 312.943939,176.859390 
	C313.398590,180.942261 316.465973,183.550262 321.122101,183.006393 
	C328.057098,182.196304 334.946442,180.928024 341.810760,179.621292 
	C343.867310,179.229782 345.775665,178.059692 348.297363,176.688034 
z"/>
<path fill="#000000" opacity="1.000000" stroke="none" 
	d="
M347.904785,373.218231 
	C363.556091,373.145172 379.207611,373.102814 394.858673,372.990936 
	C412.789459,372.862762 430.442230,371.350769 447.221497,364.086243 
	C463.462646,357.054749 477.119324,346.893127 488.450439,333.250397 
	C497.439575,322.427460 503.999146,310.443298 508.381866,297.174316 
	C509.787659,292.918091 511.052399,288.615265 512.690796,284.666870 
	C513.000000,360.960114 513.000000,436.920197 513.000000,512.940186 
	C342.333344,512.940186 171.666672,512.940186 1.000000,512.940186 
	C1.000000,481.904877 1.000000,450.921112 1.248676,419.134888 
	C3.491096,420.884277 5.259820,423.657715 7.517063,425.950134 
	C17.966949,436.562714 31.268984,442.288940 45.022110,446.966125 
	C55.849766,450.648407 66.897018,453.685028 77.910477,457.450317 
	C77.085365,476.427032 93.069717,493.483368 112.786049,493.844971 
	C141.918671,494.379211 171.070175,493.883118 200.663055,493.866272 
	C232.067169,493.909973 263.021912,493.892334 293.976593,493.928650 
	C303.867737,493.940247 313.653534,493.062683 322.707001,488.857208 
	C343.227966,479.324890 355.698303,463.573883 358.868927,440.406799 
	C358.679901,434.301697 358.392639,428.639130 358.051331,422.553528 
	C357.109375,417.358978 356.311676,412.568542 355.315643,407.819672 
	C352.894379,396.275574 350.381042,384.750793 347.904785,373.218231 
z"/>
<path fill="#E8899E" opacity="1.000000" stroke="none" 
	d="
M77.846741,457.008453 
	C66.897018,453.685028 55.849766,450.648407 45.022110,446.966125 
	C31.268984,442.288940 17.966949,436.562714 7.517063,425.950134 
	C5.259820,423.657715 3.491096,420.884277 1.248676,418.666199 
	C1.000000,413.645081 1.000000,408.290131 1.000000,402.467590 
	C1.479562,401.993927 2.272887,402.167450 2.393847,401.956085 
	C9.892032,388.856354 22.863123,383.091919 35.906509,378.158234 
	C50.338398,372.699432 65.306862,368.659149 80.496597,364.447113 
	C80.240089,381.152435 79.409134,397.407654 78.852921,413.672272 
	C78.359100,428.112244 78.170219,442.562653 77.846741,457.008453 
z"/>
<path fill="#5EC783" opacity="1.000000" stroke="none" 
	d="
M77.910477,457.450317 
	C78.170219,442.562653 78.359100,428.112244 78.852921,413.672272 
	C79.409134,397.407654 80.240089,381.152435 80.896042,364.444702 
	C80.885284,363.559998 80.930031,363.123718 81.042282,361.955048 
	C83.075462,343.582153 84.823799,325.913788 87.081635,308.310699 
	C88.640732,296.155243 90.904106,284.090088 92.852737,271.984589 
	C92.897499,271.567230 92.942268,271.149841 93.224663,270.133423 
	C100.340279,239.492371 108.597389,209.903336 122.506607,182.171295 
	C125.840469,184.026947 128.862930,185.766510 131.871323,187.530060 
	C141.076096,192.926056 149.783020,192.132080 158.366928,185.882370 
	C175.716568,173.250549 186.490601,156.568970 190.141068,135.370667 
	C191.885574,125.240280 188.051086,119.386627 178.180054,116.416992 
	C189.993210,111.455544 201.541367,106.686699 213.089539,101.917847 
	C213.504730,101.664177 213.919907,101.410507 214.759918,101.336517 
	C215.785431,101.673111 216.386139,101.830002 216.986847,101.986893 
	C203.395004,120.185303 195.850891,140.907806 193.162872,163.184875 
	C191.476959,177.156998 191.738174,191.364059 190.910812,206.160339 
	C188.813889,207.914505 186.834915,208.833572 185.065247,210.055725 
	C170.427307,220.164688 170.389526,238.447433 185.324677,248.131424 
	C189.677887,250.954056 195.067749,252.177948 199.982422,254.134659 
	C208.127655,280.794159 221.329758,304.660919 240.533844,324.872864 
	C264.277008,349.862122 293.501099,365.078125 327.184021,371.770020 
	C304.725372,372.026184 282.391510,372.592804 260.105286,371.807465 
	C247.910248,371.377716 235.764694,368.853302 223.661011,366.879730 
	C219.167709,366.147034 214.857742,364.290009 210.550613,362.972168 
	C205.653656,372.646759 199.833069,407.229553 199.790161,425.405579 
	C199.487137,430.532410 199.356903,435.287537 199.178101,440.506226 
	C199.490906,458.588470 199.852280,476.207123 200.213638,493.825806 
	C171.070175,493.883118 141.918671,494.379211 112.786049,493.844971 
	C93.069717,493.483368 77.085365,476.427032 77.910477,457.450317 
z"/>
<path fill="#F6E3A3" opacity="1.000000" stroke="none" 
	d="
M177.915085,116.609581 
	C188.051086,119.386627 191.885574,125.240280 190.141068,135.370667 
	C186.490601,156.568970 175.716568,173.250549 158.366928,185.882370 
	C149.783020,192.132080 141.076096,192.926056 131.871323,187.530060 
	C128.862930,185.766510 125.840469,184.026947 122.262344,181.924835 
	C120.455017,181.014328 119.209793,180.455414 117.964569,179.896484 
	C98.683609,165.474518 84.669739,147.262344 79.317688,123.488670 
	C76.360352,110.352234 75.695801,96.833374 78.077553,83.433212 
	C79.413895,75.914742 84.890053,71.690514 91.838951,70.243370 
	C98.964073,68.759521 105.386864,71.218300 110.335594,76.813148 
	C115.323700,82.452515 120.279442,88.120483 125.709244,94.190659 
	C127.891663,96.147987 129.503937,97.839531 131.354355,99.209419 
	C145.201035,109.460365 160.945023,114.688034 177.915085,116.609581 
z"/>
<path fill="#E8899E" opacity="1.000000" stroke="none" 
	d="
M217.312027,101.761086 
	C216.386139,101.830002 215.785431,101.673111 215.002228,101.258667 
	C218.803864,87.545204 222.107117,73.835381 226.998825,60.717918 
	C230.575775,51.126087 235.904877,42.117050 241.088577,33.218487 
	C244.884750,26.701811 250.900833,22.185230 258.323059,20.373615 
	C264.866028,18.776606 270.432983,21.684362 275.287720,25.833786 
	C284.228760,33.475883 289.892242,43.515430 293.818451,54.256905 
	C299.343018,69.371124 303.808655,84.872398 308.887329,100.557930 
	C285.988373,100.374023 262.930969,99.622681 239.868912,99.432594 
	C232.464615,99.371582 225.048126,100.792404 217.312027,101.761086 
z"/>
<path fill="#E8899E" opacity="1.000000" stroke="none" 
	d="
M117.566101,179.944977 
	C119.209793,180.455414 120.455017,181.014328 121.944504,181.819717 
	C108.597389,209.903336 100.340279,239.492371 93.204086,269.818115 
	C81.317383,265.742615 69.442482,261.931305 58.139111,256.848877 
	C49.258785,252.855927 40.952316,247.512375 35.368805,238.940445 
	C29.637728,230.141968 31.915386,222.068253 36.199482,216.335983 
	C44.332779,205.453339 56.260368,199.773956 68.311295,195.260178 
	C84.264679,189.284729 100.852493,185.003082 117.566101,179.944977 
z"/>
<path fill="#E26E7E" opacity="1.000000" stroke="none" 
	d="
M92.451012,271.992401 
	C90.904106,284.090088 88.640732,296.155243 87.081635,308.310699 
	C84.823799,325.913788 83.075462,343.582153 80.992958,361.628418 
	C65.782570,358.098389 51.036568,353.267670 37.106503,346.076660 
	C29.542513,342.171936 22.974503,337.136902 17.328154,330.837280 
	C11.485012,324.318115 11.759173,312.786682 17.403490,305.996490 
	C26.734386,294.771301 39.389210,288.842773 52.568935,284.134613 
	C65.521126,279.507721 78.872871,275.999390 92.451012,271.992401 
z"/>
<path fill="#F6E3A3" opacity="1.000000" stroke="none" 
	d="
M381.981659,170.664703 
	C379.856567,167.402084 377.517487,163.978363 375.952057,160.231400 
	C367.404236,139.771057 354.502960,123.016357 335.060547,111.236092 
	C347.688721,105.336884 359.736328,98.461594 369.386444,88.056358 
	C373.045898,84.110535 376.221558,79.719017 379.827911,75.720192 
	C385.544739,69.381157 392.956024,68.102905 400.306458,71.341568 
	C406.768616,74.188881 410.384918,79.484909 411.231476,87.400597 
	C413.059998,104.497963 411.159607,120.824844 405.081238,136.839691 
	C400.122131,149.905624 392.233917,160.866104 381.981659,170.664703 
z"/>
<path fill="#E26E7E" opacity="1.000000" stroke="none" 
	d="
M178.180054,116.416992 
	C160.945023,114.688034 145.201035,109.460365 131.354355,99.209419 
	C129.503937,97.839531 127.891663,96.147987 126.022934,94.294250 
	C125.825386,82.934868 127.206291,72.100182 131.009644,61.679123 
	C134.017990,53.436325 138.912689,46.841545 148.207718,45.454792 
	C155.293503,44.397640 161.568405,47.328022 167.456787,50.980965 
	C181.712021,59.824421 191.840591,72.790703 201.919998,85.764526 
	C205.804810,90.764893 209.315704,96.055756 213.043259,101.566055 
	C201.541367,106.686699 189.993210,111.455544 178.180054,116.416992 
z"/>
<path fill="#F6EF87" opacity="1.000000" stroke="none" 
	d="
M199.962921,425.033875 
	C199.833069,407.229553 205.653656,372.646759 210.550613,362.972168 
	C214.857742,364.290009 219.167709,366.147034 223.661011,366.879730 
	C235.764694,368.853302 247.910248,371.377716 260.105286,371.807465 
	C282.391510,372.592804 304.725372,372.026184 327.503357,371.973969 
	C334.374664,372.210754 340.781982,372.497009 347.547058,373.000763 
	C350.381042,384.750793 352.894379,396.275574 355.315643,407.819672 
	C356.311676,412.568542 357.109375,417.358978 357.872009,422.906586 
	C355.564178,424.127747 353.382233,424.958038 351.198944,424.961426 
	C300.787018,425.039917 250.374954,425.028564 199.962921,425.033875 
z"/>
<path fill="#4F5760" opacity="1.000000" stroke="none" 
	d="
M366.149658,289.347046 
	C367.167175,280.765869 372.470459,276.590973 379.903625,275.105133 
	C395.075012,272.072479 410.401306,271.950745 425.555328,274.956146 
	C439.098572,277.642029 444.426849,288.250824 437.829437,300.425934 
	C434.900757,305.830627 429.851318,310.825287 424.576202,314.080109 
	C409.095581,323.631836 386.791840,320.889587 374.429596,308.890869 
	C369.039856,303.659637 366.067871,297.365723 366.149658,289.347046 
z"/>
<path fill="#FEFFFE" opacity="1.000000" stroke="none" 
	d="
M340.250061,205.194107 
	C350.838501,202.836105 361.081085,203.316864 370.576874,209.147537 
	C386.887512,219.162750 387.034424,239.100952 370.643433,248.926117 
	C358.799805,256.025543 346.204620,256.408447 333.943604,250.173920 
	C317.230103,241.675385 314.826660,225.082672 328.462830,211.513641 
	C335.583069,212.946350 338.011261,211.633926 340.250061,205.194107 
z"/>
<path fill="#FEFEFE" opacity="1.000000" stroke="none" 
	d="
M200.447372,254.101990 
	C195.067749,252.177948 189.677887,250.954056 185.324677,248.131424 
	C170.389526,238.447433 170.427307,220.164688 185.065247,210.055725 
	C186.834915,208.833572 188.813889,207.914505 190.963043,206.655151 
	C199.332581,203.651108 207.554260,203.018234 216.422806,205.498245 
	C219.495407,211.987579 221.849792,213.033798 228.727844,211.145233 
	C234.373703,216.931290 238.584442,223.293793 237.264084,231.951248 
	C235.522247,243.372375 224.465256,252.693787 210.884277,253.952652 
	C207.585037,254.258469 204.237595,254.044342 200.447372,254.101990 
z"/>
<path fill="#4F5961" opacity="1.000000" stroke="none" 
	d="
M231.733368,167.214874 
	C234.272797,167.704422 236.445572,167.943741 238.505356,168.560486 
	C242.552368,169.772202 244.612350,172.583115 244.029221,176.843933 
	C243.437790,181.165390 240.580856,183.557602 236.395294,183.012711 
	C228.324692,181.962036 220.278061,180.576157 212.320953,178.866455 
	C208.170410,177.974670 206.459396,174.662323 207.108475,170.451187 
	C207.716125,166.508606 211.311020,163.904312 215.566467,164.487564 
	C220.838120,165.210083 226.067825,166.238831 231.733368,167.214874 
z"/>
<path fill="#4F5961" opacity="1.000000" stroke="none" 
	d="
M348.024628,176.967163 
	C345.775665,178.059692 343.867310,179.229782 341.810760,179.621292 
	C334.946442,180.928024 328.057098,182.196304 321.122101,183.006393 
	C316.465973,183.550262 313.398590,180.942261 312.943939,176.859390 
	C312.436371,172.301575 314.647614,169.333984 318.959656,168.442932 
	C326.455505,166.893967 333.998138,165.390808 341.597412,164.631973 
	C343.895599,164.402481 347.679993,166.108505 348.567444,167.979263 
	C349.675018,170.314087 348.491608,173.735672 348.024628,176.967163 
z"/>
<path fill="#505961" opacity="1.000000" stroke="none" 
	d="
M228.935364,210.823013 
	C221.849792,213.033798 219.495407,211.987579 216.831207,205.548309 
	C216.802811,200.905212 216.777802,196.608856 216.947845,192.320221 
	C217.134537,187.611404 220.017807,184.535980 224.133499,184.407547 
	C228.131104,184.282791 231.855591,187.402298 231.742142,191.917969 
	C231.585327,198.159744 234.016068,204.889389 228.935364,210.823013 
z"/>
<path fill="#505961" opacity="1.000000" stroke="none" 
	d="
M340.202026,204.716904 
	C338.011261,211.633926 335.583069,212.946350 328.624634,211.214447 
	C322.866150,204.146484 324.618103,196.272781 326.325745,188.815491 
	C326.759583,186.920990 331.106567,184.927795 333.757233,184.777863 
	C337.380585,184.572891 339.743439,187.514023 339.971619,191.290970 
	C340.231628,195.595169 340.109833,199.922455 340.202026,204.716904 
z"/>
<path fill="#F5EE87" opacity="1.000000" stroke="none" 
	d="
M200.663055,493.866272 
	C199.852280,476.207123 199.490906,458.588470 199.630585,440.500183 
	C250.886002,440.026611 301.640381,440.012573 352.394745,440.053864 
	C354.520264,440.055573 356.645416,440.572449 358.770721,440.849335 
	C355.698303,463.573883 343.227966,479.324890 322.707001,488.857208 
	C313.653534,493.062683 303.867737,493.940247 293.976593,493.928650 
	C263.021912,493.892334 232.067169,493.909973 200.663055,493.866272 
z"/>
<path fill="#EFD276" opacity="1.000000" stroke="none" 
	d="
M358.868927,440.406799 
	C356.645416,440.572449 354.520264,440.055573 352.394745,440.053864 
	C301.640381,440.012573 250.886002,440.026611 199.679138,440.036621 
	C199.356903,435.287537 199.487137,430.532410 199.790161,425.405579 
	C250.374954,425.028564 300.787018,425.039917 351.198944,424.961426 
	C353.382233,424.958038 355.564178,424.127747 357.926086,423.329590 
	C358.392639,428.639130 358.679901,434.301697 358.868927,440.406799 
z"/>
</svg>