<?xml version="1.0" standalone="no"?><svg xmlns="http://www.w3.org/2000/svg" viewBox="0 0 1440 320"><path fill="#0099ff" fill-opacity="1" d="M0,96L34.3,128C68.6,160,137,224,206,208C274.3,192,343,96,411,80C480,64,549,128,617,144C685.7,160,754,128,823,101.3C891.4,75,960,53,1029,53.3C1097.1,53,1166,75,1234,85.3C1302.9,96,1371,96,1406,96L1440,96L1440,320L1405.7,320C1371.4,320,1303,320,1234,320C1165.7,320,1097,320,1029,320C960,320,891,320,823,320C754.3,320,686,320,617,320C548.6,320,480,320,411,320C342.9,320,274,320,206,320C137.1,320,69,320,34,320L0,320Z"></path></svg>